<svg id="visual" viewBox="0 0 960 540" width="960" height="540" xmlns="http://www.w3.org/2000/svg" xmlns:xlink="http://www.w3.org/1999/xlink" version="1.1"><g transform="translate(3.0155268322552047 445.4084388616118)"><path d="M175.6 -295C226.6 -274.8 266.1 -225.6 299.5 -171.6C332.8 -117.7 359.9 -58.8 347.9 -6.9C335.9 45 284.9 90 265.4 167.9C245.9 245.9 257.9 356.8 219 419.4C180 482.1 90 496.6 0.1 496.4C-89.8 496.3 -179.7 481.5 -220.1 419.7C-260.5 357.9 -251.5 248.9 -262.4 171.1C-273.3 93.3 -304.2 46.7 -328.7 -14.2C-353.2 -75 -371.5 -150 -340.4 -192.9C-309.3 -235.7 -228.9 -246.5 -164 -258.6C-99 -270.8 -49.5 -284.4 6.4 -295.5C62.3 -306.6 124.7 -315.3 175.6 -295" fill="#d4b3b6"></path></g></svg>