<svg id="visual" viewBox="0 0 960 540" width="960" height="540" xmlns="http://www.w3.org/2000/svg" xmlns:xlink="http://www.w3.org/1999/xlink" version="1.1"><g transform="translate(-54.184288661686026 518.781062372577)"><path d="M157.5 -274.7C214.4 -240 277.8 -218.5 340.5 -174.9C403.1 -131.3 465.1 -65.7 484.7 11.3C504.3 88.3 481.7 176.7 412.4 208.9C343.2 241 227.3 217.1 150.8 242.6C74.3 268.1 37.2 343 -26.4 388.8C-90 434.6 -180 451.1 -209.9 398.7C-239.8 346.3 -209.5 224.9 -245.5 146.9C-281.5 69 -383.8 34.5 -383.1 0.4C-382.5 -33.8 -278.9 -67.5 -235 -131.7C-191.1 -196 -206.8 -290.7 -177.6 -341.3C-148.3 -391.9 -74.2 -398.5 -11.9 -377.8C50.3 -357.2 100.7 -309.4 157.5 -274.7" fill="#d4b3b6"></path></g></svg>