<svg id="visual" viewBox="0 0 900 450" width="900" height="450" xmlns="http://www.w3.org/2000/svg" xmlns:xlink="http://www.w3.org/1999/xlink" version="1.1"><g transform="translate(-25.439887895132273 -43.46583264589435)"><path d="M170.2 -273.3C228.9 -227.1 290.4 -193.9 362.2 -136.2C434 -78.5 515.9 3.7 502.1 69.4C488.3 135 378.6 184.1 308.1 268.7C237.5 353.3 205.9 473.5 137.2 516C68.4 558.6 -37.5 523.5 -122.3 472.9C-207.2 422.3 -271 356.2 -333.7 287.3C-396.4 218.3 -458 146.5 -452.4 75.2C-446.8 4 -373.9 -66.8 -338.7 -159.1C-303.4 -251.5 -305.8 -365.5 -255.6 -415.6C-205.4 -465.7 -102.7 -451.8 -23.5 -415.3C55.8 -378.8 111.5 -319.5 170.2 -273.3" fill="#d4b3b6"></path></g></svg>