<svg id="visual" viewBox="0 0 1160 540" width="1160" height="540" xmlns="http://www.w3.org/2000/svg" xmlns:xlink="http://www.w3.org/1999/xlink" version="1.1"><path d="M772 540L757.7 534.3C743.3 528.7 714.7 517.3 718.8 506.2C723 495 760 484 789 472.8C818 461.7 839 450.3 828.8 439C818.7 427.7 777.3 416.3 749.2 405C721 393.7 706 382.3 702.2 371.2C698.3 360 705.7 349 706.2 337.8C706.7 326.7 700.3 315.3 713.5 304C726.7 292.7 759.3 281.3 776.3 270C793.3 258.7 794.7 247.3 796.2 236.2C797.7 225 799.3 214 791.2 202.8C783 191.7 765 180.3 755.7 169C746.3 157.7 745.7 146.3 758 135C770.3 123.7 795.7 112.3 800.5 101.2C805.3 90 789.7 79 772.5 67.8C755.3 56.7 736.7 45.3 741.5 34C746.3 22.7 774.7 11.3 788.8 5.7L803 0L1160 0L1160 5.7C1160 11.3 1160 22.7 1160 34C1160 45.3 1160 56.7 1160 67.8C1160 79 1160 90 1160 101.2C1160 112.3 1160 123.7 1160 135C1160 146.3 1160 157.7 1160 169C1160 180.3 1160 191.7 1160 202.8C1160 214 1160 225 1160 236.2C1160 247.3 1160 258.7 1160 270C1160 281.3 1160 292.7 1160 304C1160 315.3 1160 326.7 1160 337.8C1160 349 1160 360 1160 371.2C1160 382.3 1160 393.7 1160 405C1160 416.3 1160 427.7 1160 439C1160 450.3 1160 461.7 1160 472.8C1160 484 1160 495 1160 506.2C1160 517.3 1160 528.7 1160 534.3L1160 540Z" fill="#e9e3e2"></path><path d="M932 540L925.3 534.3C918.7 528.7 905.3 517.3 884 506.2C862.7 495 833.3 484 834.8 472.8C836.3 461.7 868.7 450.3 866.7 439C864.7 427.7 828.3 416.3 822.8 405C817.3 393.7 842.7 382.3 844 371.2C845.3 360 822.7 349 813 337.8C803.3 326.7 806.7 315.3 818.5 304C830.3 292.7 850.7 281.3 869.5 270C888.3 258.7 905.7 247.3 893.3 236.2C881 225 839 214 835.2 202.8C831.3 191.7 865.7 180.3 866.7 169C867.7 157.7 835.3 146.3 822.8 135C810.3 123.7 817.7 112.3 832.8 101.2C848 90 871 79 886.3 67.8C901.7 56.7 909.3 45.3 894.8 34C880.3 22.7 843.7 11.3 825.3 5.7L807 0L1160 0L1160 5.7C1160 11.3 1160 22.7 1160 34C1160 45.3 1160 56.7 1160 67.8C1160 79 1160 90 1160 101.2C1160 112.3 1160 123.7 1160 135C1160 146.3 1160 157.7 1160 169C1160 180.3 1160 191.7 1160 202.8C1160 214 1160 225 1160 236.2C1160 247.3 1160 258.7 1160 270C1160 281.3 1160 292.7 1160 304C1160 315.3 1160 326.7 1160 337.8C1160 349 1160 360 1160 371.2C1160 382.3 1160 393.7 1160 405C1160 416.3 1160 427.7 1160 439C1160 450.3 1160 461.7 1160 472.8C1160 484 1160 495 1160 506.2C1160 517.3 1160 528.7 1160 534.3L1160 540Z" fill="#e3bfbc"></path><path d="M874 540L885.8 534.3C897.7 528.7 921.3 517.3 935.3 506.2C949.3 495 953.7 484 938.5 472.8C923.3 461.7 888.7 450.3 867.2 439C845.7 427.7 837.3 416.3 848.5 405C859.7 393.7 890.3 382.3 914.7 371.2C939 360 957 349 951.8 337.8C946.7 326.7 918.3 315.3 900.2 304C882 292.7 874 281.3 875.7 270C877.3 258.7 888.7 247.3 890.7 236.2C892.7 225 885.3 214 892.3 202.8C899.3 191.7 920.7 180.3 921.2 169C921.7 157.7 901.3 146.3 891.2 135C881 123.7 881 112.3 874.8 101.2C868.7 90 856.3 79 865 67.8C873.7 56.7 903.3 45.3 903 34C902.7 22.7 872.3 11.3 857.2 5.7L842 0L1160 0L1160 5.7C1160 11.3 1160 22.7 1160 34C1160 45.3 1160 56.7 1160 67.8C1160 79 1160 90 1160 101.2C1160 112.3 1160 123.7 1160 135C1160 146.3 1160 157.7 1160 169C1160 180.3 1160 191.7 1160 202.8C1160 214 1160 225 1160 236.2C1160 247.3 1160 258.7 1160 270C1160 281.3 1160 292.7 1160 304C1160 315.3 1160 326.7 1160 337.8C1160 349 1160 360 1160 371.2C1160 382.3 1160 393.7 1160 405C1160 416.3 1160 427.7 1160 439C1160 450.3 1160 461.7 1160 472.8C1160 484 1160 495 1160 506.2C1160 517.3 1160 528.7 1160 534.3L1160 540Z" fill="#da9a9b"></path><path d="M983 540L988 534.3C993 528.7 1003 517.3 992.3 506.2C981.7 495 950.3 484 935.3 472.8C920.3 461.7 921.7 450.3 929 439C936.3 427.7 949.7 416.3 959.7 405C969.7 393.7 976.3 382.3 972.8 371.2C969.3 360 955.7 349 953 337.8C950.3 326.7 958.7 315.3 961.5 304C964.3 292.7 961.7 281.3 951.3 270C941 258.7 923 247.3 921.2 236.2C919.3 225 933.7 214 935.2 202.8C936.7 191.7 925.3 180.3 934 169C942.7 157.7 971.3 146.3 986.3 135C1001.3 123.7 1002.7 112.3 998.5 101.2C994.3 90 984.7 79 986.7 67.8C988.7 56.7 1002.3 45.3 1010.8 34C1019.3 22.7 1022.7 11.3 1024.3 5.7L1026 0L1160 0L1160 5.7C1160 11.3 1160 22.7 1160 34C1160 45.3 1160 56.7 1160 67.8C1160 79 1160 90 1160 101.2C1160 112.3 1160 123.7 1160 135C1160 146.3 1160 157.7 1160 169C1160 180.3 1160 191.7 1160 202.8C1160 214 1160 225 1160 236.2C1160 247.3 1160 258.7 1160 270C1160 281.3 1160 292.7 1160 304C1160 315.3 1160 326.7 1160 337.8C1160 349 1160 360 1160 371.2C1160 382.3 1160 393.7 1160 405C1160 416.3 1160 427.7 1160 439C1160 450.3 1160 461.7 1160 472.8C1160 484 1160 495 1160 506.2C1160 517.3 1160 528.7 1160 534.3L1160 540Z" fill="#cf757f"></path><path d="M1049 540L1050.7 534.3C1052.3 528.7 1055.7 517.3 1044.8 506.2C1034 495 1009 484 1005.5 472.8C1002 461.7 1020 450.3 1033.5 439C1047 427.7 1056 416.3 1059.2 405C1062.3 393.7 1059.7 382.3 1059 371.2C1058.3 360 1059.7 349 1047.5 337.8C1035.3 326.7 1009.7 315.3 1008.3 304C1007 292.7 1030 281.3 1043.5 270C1057 258.7 1061 247.3 1047.3 236.2C1033.7 225 1002.3 214 993.2 202.8C984 191.7 997 180.3 1003.5 169C1010 157.7 1010 146.3 1008.7 135C1007.3 123.7 1004.7 112.3 997.7 101.2C990.7 90 979.3 79 983.5 67.8C987.7 56.7 1007.3 45.3 1012.2 34C1017 22.7 1007 11.3 1002 5.7L997 0L1160 0L1160 5.7C1160 11.3 1160 22.7 1160 34C1160 45.3 1160 56.7 1160 67.8C1160 79 1160 90 1160 101.2C1160 112.3 1160 123.7 1160 135C1160 146.3 1160 157.7 1160 169C1160 180.3 1160 191.7 1160 202.8C1160 214 1160 225 1160 236.2C1160 247.3 1160 258.7 1160 270C1160 281.3 1160 292.7 1160 304C1160 315.3 1160 326.7 1160 337.8C1160 349 1160 360 1160 371.2C1160 382.3 1160 393.7 1160 405C1160 416.3 1160 427.7 1160 439C1160 450.3 1160 461.7 1160 472.8C1160 484 1160 495 1160 506.2C1160 517.3 1160 528.7 1160 534.3L1160 540Z" fill="#c14d67"></path><path d="M1114 540L1113.3 534.3C1112.7 528.7 1111.3 517.3 1099.5 506.2C1087.7 495 1065.3 484 1066.5 472.8C1067.7 461.7 1092.3 450.3 1093.2 439C1094 427.7 1071 416.3 1060.3 405C1049.7 393.7 1051.3 382.3 1059.3 371.2C1067.3 360 1081.7 349 1090.3 337.8C1099 326.7 1102 315.3 1103.3 304C1104.7 292.7 1104.3 281.3 1094.8 270C1085.3 258.7 1066.7 247.3 1066.7 236.2C1066.7 225 1085.3 214 1096.3 202.8C1107.3 191.7 1110.7 180.3 1110.5 169C1110.3 157.7 1106.7 146.3 1103.2 135C1099.7 123.7 1096.3 112.3 1095.3 101.2C1094.3 90 1095.7 79 1099.5 67.8C1103.3 56.7 1109.7 45.3 1106.5 34C1103.3 22.7 1090.7 11.3 1084.3 5.7L1078 0L1160 0L1160 5.7C1160 11.3 1160 22.7 1160 34C1160 45.3 1160 56.7 1160 67.8C1160 79 1160 90 1160 101.2C1160 112.3 1160 123.7 1160 135C1160 146.3 1160 157.7 1160 169C1160 180.3 1160 191.7 1160 202.8C1160 214 1160 225 1160 236.2C1160 247.3 1160 258.7 1160 270C1160 281.3 1160 292.7 1160 304C1160 315.3 1160 326.7 1160 337.8C1160 349 1160 360 1160 371.2C1160 382.3 1160 393.7 1160 405C1160 416.3 1160 427.7 1160 439C1160 450.3 1160 461.7 1160 472.8C1160 484 1160 495 1160 506.2C1160 517.3 1160 528.7 1160 534.3L1160 540Z" fill="#b01455"></path></svg>