<svg id="visual" viewBox="0 0 960 540" width="960" height="540" xmlns="http://www.w3.org/2000/svg" xmlns:xlink="http://www.w3.org/1999/xlink" version="1.1"><path d="M475 0L349 0L349 68L430 68L430 135L336 135L336 203L449 203L449 270L420 270L420 338L482 338L482 405L362 405L362 473L451 473L451 540L0 540L0 473L0 473L0 405L0 405L0 338L0 338L0 270L0 270L0 203L0 203L0 135L0 135L0 68L0 68L0 0L0 0Z" fill="#bf4a78"></path><path d="M361 0L325 0L325 68L379 68L379 135L398 135L398 203L287 203L287 270L351 270L351 338L389 338L389 405L295 405L295 473L285 473L285 540L0 540L0 473L0 473L0 405L0 405L0 338L0 338L0 270L0 270L0 203L0 203L0 135L0 135L0 68L0 68L0 0L0 0Z" fill="#c45b85"></path><path d="M197 0L233 0L233 68L307 68L307 135L325 135L325 203L328 203L328 270L195 270L195 338L199 338L199 405L277 405L277 473L189 473L189 540L0 540L0 473L0 473L0 405L0 405L0 338L0 338L0 270L0 270L0 203L0 203L0 135L0 135L0 68L0 68L0 0L0 0Z" fill="#c86b92"></path><path d="M224 0L242 0L242 68L127 68L127 135L128 135L128 203L183 203L183 270L196 270L196 338L130 338L130 405L187 405L187 473L168 473L168 540L0 540L0 473L0 473L0 405L0 405L0 338L0 338L0 270L0 270L0 203L0 203L0 135L0 135L0 68L0 68L0 0L0 0Z" fill="#cc7a9f"></path><path d="M72 0L111 0L111 68L146 68L146 135L128 135L128 203L81 203L81 270L153 270L153 338L73 338L73 405L109 405L109 473L75 473L75 540L0 540L0 473L0 473L0 405L0 405L0 338L0 338L0 270L0 270L0 203L0 203L0 135L0 135L0 68L0 68L0 0L0 0Z" fill="#d089ab"></path></svg>